PathFileType	4	(x/y/z)	A01_PREF_T0018.trc
DataRate	CameraRate	NumFrames	NumMarkers	Units	OrigDataRate	OrigDataStartFrame	OrigNumFrames
240	240	8	48	mm	240	250	285
Frame#	Time	TOP_HEAD			R_AC			L_AC			R_ASIS			L_ASIS			R_PSIS			L_PSIS			SACRAL			L_IC			R_IC			L_GT			R_GT			R_LAT_KNEE			R_MED_KNEE			L_MED_KNEE			L_LAT_KNEE			R_TOE			L_TOE			R_1ST_MET			L_1ST_MET			L_5TH_MET			R_5TH_MET			R_LAT_ANK			R_MED_ANK			L_MED_ANK			L_LAT_ANK			L_HEEL_SUP			R_HEEL_SUP			L_HEEL_LAT			R_HEEL_LAT			L_HEEL_MED			R_HEEL_MED			R_SHANK_PROX_POST			R_SHANK_PROX_ANT			R_SHANK_DIST_ANT			R_SHANK_DIST_POST			R_THIGH_PROX_POST			R_THIGH_PROX_ANT			R_THIGH_DIST_ANT			R_THIGH_DIST_POST			L_SHANK_PROX_ANT			L_SHANK_PROX_POST			L_SHANK_DIST_POST			L_SHANK_DIST_ANT			L_THIGH_PROX_ANT			L_THIGH_PROX_POST			L_THIGH_DIST_POST			L_THIGH_DIST_ANT			
		X1	Y1	Z1	X2	Y2	Z2	X3	Y3	Z3	X4	Y4	Z4	X5	Y5	Z5	X6	Y6	Z6	X7	Y7	Z7	X8	Y8	Z8	X9	Y9	Z9	X10	Y10	Z10	X11	Y11	Z11	X12	Y12	Z12	X13	Y13	Z13	X14	Y14	Z14	X15	Y15	Z15	X16	Y16	Z16	X17	Y17	Z17	X18	Y18	Z18	X19	Y19	Z19	X20	Y20	Z20	X21	Y21	Z21	X22	Y22	Z22	X23	Y23	Z23	X24	Y24	Z24	X25	Y25	Z25	X26	Y26	Z26	X27	Y27	Z27	X28	Y28	Z28	X29	Y29	Z29	X30	Y30	Z30	X31	Y31	Z31	X32	Y32	Z32	X33	Y33	Z33	X34	Y34	Z34	X35	Y35	Z35	X36	Y36	Z36	X37	Y37	Z37	X38	Y38	Z38	X39	Y39	Z39	X40	Y40	Z40	X41	Y41	Z41	X42	Y42	Z42	X43	Y43	Z43	X44	Y44	Z44	X45	Y45	Z45	X46	Y46	Z46	X47	Y47	Z47	X48	Y48	Z48	

250	1.0412	844.76	1777.4	323.12	631.66	1593.6	586.05	578.28	1580.2	130.76	601.81	1112.2	575.88	607.39	1064.8	222.01	386.01	1125.3	444.56	397.97	1118.9	314.65	375.88	1092.8	377.17	575.85	1182.8	179.94	578.92	1226.1	580.39	556.94	984.84	176.69	528.61	1004.6	609.68	476.86	596.38	540.96	509.9	592.61	411.98	714.31	597.17	382.83	683.31	609.77	227.47	592.07	65.608	451.52	887.22	114.06	246.28	509.78	54.009	403.83	812.52	81.858	305.43	773.89	76.582	180.88	480.94	48.676	537.35	380.22	139.55	507.64	390.46	141.35	404.68	681.32	162.13	302.27	648.14	155.16	237.99	569.06	96.694	280.74	279.08	124.65	451.49	577	69.175	249.14	280.34	100.97	486.55	590.87	66.692	310.63	282.28	96.238	426.06	360.05	434.57	539.35	428.4	415.62	557.01	421.14	342.35	538.92	365.86	352.06	529.43	471.87	869.62	583.31	542.7	880.68	595.67	536.79	789.69	585.14	469.81	780.57	571.17	732.35	529.26	233.28	677.05	526.93	225.22	673.4	463.81	231.27	726.7	473.14	237.81	666.88	865.98	218.87	601.68	850.92	191.58	633.38	782.08	203.94	693.28	796.9	226.98
251	1.0453	849.92	1777.2	322.55	636.57	1593.9	585.53	583.24	1580.3	130.42	606.58	1112.2	575.55	613.03	1064.5	221.69	391.17	1125.5	443.75	403.39	1118.8	313.92	381.08	1092.9	376.42	581.53	1182.9	179.55	583.81	1226.3	579.93	562.44	984.52	176.33	533.03	1004.8	609.28	478.8	596.93	540.72	511.94	592.91	411.74	718.86	596.72	383.14	688.33	608.74	227.62	592.1	65.595	451.53	903.59	117.92	247.25	509.98	53.892	403.84	829.37	83.883	306	791.5	77.751	181.24	481.14	48.795	537.32	380.82	140.32	507.46	391.17	142.01	404.56	696.26	161.08	302.2	663.55	153.43	237.79	585.7	92.8	280.06	279.69	125.78	451.26	594.46	65.505	248.52	280.82	102.13	486.36	608.11	63.359	310.09	282.73	97.327	425.88	361.38	435.49	538.99	429.63	416.35	556.79	422.19	343.08	538.75	366.96	352.95	529.14	475.47	870.22	582.88	546.37	880.87	595.2	539.98	789.94	584.75	472.95	781.2	570.82	739.22	529.35	233.65	684.03	525.75	225.35	681.76	462.57	231.33	734.82	473.12	238.13	671.95	865.43	218.77	606.81	850.43	191.32	638.39	781.56	203.84	698.25	796.33	227.07
252	1.0495	855.09	1777	321.98	641.5	1594.1	585	588.19	1580.3	130.07	611.36	1112.2	575.21	618.66	1064.1	221.36	396.34	1125.6	442.94	408.81	1118.7	313.18	386.28	1093	375.66	587.22	1183	179.16	588.71	1226.5	579.48	567.93	984.12	175.96	537.47	1004.9	608.87	480.78	597.45	540.48	514.01	593.19	411.5	723.4	596.21	383.45	693.37	607.66	227.75	592.11	65.579	451.55	919.72	121.9	248.28	510.17	53.773	403.85	845.98	86.081	306.62	808.9	79.125	181.65	481.33	48.914	537.29	381.41	141.07	507.27	391.87	142.67	404.44	711.07	160.19	302.17	678.87	151.87	237.62	602.26	89.168	279.4	280.29	126.9	451.03	611.84	62.117	247.93	281.31	103.27	486.16	625.26	60.303	309.59	283.19	98.403	425.7	362.74	436.39	538.63	430.88	417.07	556.56	423.25	343.8	538.57	368.08	353.83	528.85	479.1	870.8	582.44	550.07	881.03	594.74	543.21	790.17	584.36	476.12	781.8	570.46	746.06	529.41	234.03	691.01	524.57	225.49	690.11	461.36	231.38	742.89	473.1	238.46	677.03	864.8	218.65	611.94	849.85	191.04	643.38	780.96	203.72	703.21	795.68	227.13
253	1.0537	860.27	1776.7	321.41	646.46	1594.3	584.46	593.14	1580.4	129.72	616.17	1112.1	574.85	624.3	1063.6	221.02	401.52	1125.6	442.12	414.25	1118.5	312.45	391.5	1092.9	374.9	592.88	1183	178.76	593.59	1226.6	579.02	573.42	983.64	175.58	541.93	1005	608.46	482.8	597.95	540.24	516.11	593.44	411.25	727.94	595.62	383.76	698.43	606.54	227.88	592.12	65.56	451.57	935.57	126	249.36	510.37	53.654	403.87	862.35	88.439	307.29	826.1	80.692	182.11	481.53	49.031	537.27	382.01	141.81	507.08	392.58	143.32	404.31	725.75	159.44	302.17	694.07	150.5	237.48	618.73	85.797	278.78	280.89	128	450.79	629.09	59.008	247.38	281.79	104.39	485.96	642.28	57.517	309.13	283.65	99.465	425.51	364.12	437.29	538.26	432.15	417.77	556.34	424.33	344.51	538.4	369.22	354.7	528.56	482.76	871.34	582.01	553.79	881.17	594.26	546.48	790.37	583.96	479.32	782.38	570.11	752.86	529.45	234.4	697.98	523.38	225.62	698.43	460.16	231.44	750.92	473.08	238.8	682.1	864.09	218.52	617.07	849.2	190.74	648.38	780.28	203.58	708.18	794.95	227.18
254	1.0579	865.48	1776.4	320.85	651.44	1594.4	583.92	598.08	1580.3	129.38	621	1111.9	574.47	629.93	1063	220.67	406.71	1125.6	441.3	419.7	1118.2	311.7	396.73	1092.9	374.13	598.53	1182.9	178.36	598.46	1226.6	578.56	578.91	983.08	175.2	546.41	1005.1	608.05	484.84	598.43	539.99	518.24	593.67	410.99	732.5	594.97	384.07	703.52	605.37	228	592.13	65.539	451.59	951.15	130.19	250.48	510.56	53.534	403.88	878.46	90.944	308.01	843.06	82.439	182.61	481.72	49.146	537.24	382.61	142.55	506.88	393.29	143.96	404.18	740.29	158.84	302.2	709.14	149.31	237.37	635.08	82.683	278.18	281.48	129.09	450.55	646.22	56.172	246.86	282.28	105.51	485.76	659.16	54.995	308.71	284.11	100.51	425.32	365.52	438.17	537.89	433.44	418.47	556.11	425.42	345.21	538.22	370.38	355.56	528.26	486.46	871.85	581.58	557.55	881.28	593.79	549.77	790.55	583.55	482.56	782.92	569.77	759.65	529.46	234.78	704.95	522.18	225.76	706.74	458.99	231.51	758.91	473.06	239.15	687.18	863.3	218.36	622.2	848.47	190.43	653.38	779.53	203.43	713.15	794.15	227.21
255	1.0621	870.7	1776	320.28	656.44	1594.4	583.37	603.02	1580.2	129.03	625.86	1111.8	574.07	635.57	1062.4	220.31	411.91	1125.5	440.46	425.15	1117.9	310.95	401.98	1092.7	373.35	604.16	1182.8	177.95	603.31	1226.6	578.1	584.42	982.45	174.82	550.91	1005.2	607.64	486.93	598.88	539.74	520.41	593.88	410.73	737.08	594.26	384.37	708.65	604.17	228.13	592.13	65.514	451.61	966.45	134.47	251.63	510.75	53.414	403.89	894.31	93.58	308.77	859.77	84.351	183.16	481.91	49.258	537.22	383.21	143.27	506.68	393.99	144.6	404.05	754.67	158.37	302.25	724.07	148.28	237.29	651.3	79.821	277.63	282.07	130.18	450.3	663.18	53.602	246.38	282.77	106.61	485.55	675.88	52.726	308.32	284.57	101.55	425.12	366.95	439.04	537.51	434.75	419.15	555.9	426.54	345.89	538.04	371.55	356.41	527.95	490.2	872.33	581.15	561.34	881.36	593.31	553.11	790.7	583.14	485.83	783.43	569.42	766.4	529.45	235.15	711.91	520.99	225.9	715.01	457.86	231.59	766.86	473.04	239.5	692.27	862.44	218.18	627.35	847.66	190.11	658.39	778.7	203.26	718.12	793.27	227.23
256	1.0662	875.95	1775.6	319.71	661.48	1594.4	582.8	607.96	1580.1	128.68	630.74	1111.5	573.66	641.21	1061.7	219.94	417.12	1125.3	439.62	430.62	1117.5	310.19	407.24	1092.5	372.56	609.76	1182.6	177.53	608.15	1226.5	577.63	589.94	981.74	174.42	555.44	1005.2	607.21	489.05	599.31	539.49	522.63	594.06	410.46	741.69	593.49	384.66	713.82	602.94	228.25	592.14	65.487	451.63	981.45	138.82	252.82	510.93	53.295	403.9	909.88	96.33	309.57	876.22	86.411	183.74	482.1	49.368	537.19	383.8	143.98	506.48	394.7	145.23	403.92	768.89	158.04	302.33	738.84	147.42	237.23	667.37	77.204	277.11	282.67	131.25	450.04	679.98	51.287	245.93	283.26	107.7	485.34	692.42	50.699	307.98	285.03	102.58	424.92	368.41	439.91	537.12	436.08	419.82	555.68	427.67	346.55	537.85	372.75	357.25	527.64	493.97	872.78	580.73	565.17	881.42	592.83	556.48	790.82	582.73	489.14	783.92	569.08	773.15	529.42	235.53	718.88	519.81	226.04	723.27	456.75	231.67	774.76	473.02	239.85	697.39	861.51	217.98	632.52	846.77	189.77	663.42	777.8	203.07	723.12	792.32	227.22
257	1.0704	881.22	1775.1	319.13	666.56	1594.3	582.24	612.91	1579.9	128.33	635.64	1111.3	573.23	646.86	1060.9	219.56	422.34	1125.1	438.76	436.11	1117	309.42	412.53	1092.1	371.76	615.34	1182.4	177.1	612.98	1226.3	577.15	595.47	980.95	174.03	560	1005.1	606.78	491.23	599.71	539.23	524.88	594.22	410.19	746.35	592.67	384.96	719.03	601.68	228.38	592.14	65.458	451.66	996.15	143.22	254.02	511.11	53.175	403.91	925.17	99.176	310.41	892.4	88.601	184.36	482.28	49.475	537.17	384.39	144.69	506.28	395.41	145.85	403.78	782.93	157.83	302.44	753.43	146.71	237.2	683.27	74.823	276.63	283.26	132.32	449.78	696.57	49.216	245.52	283.76	108.79	485.12	708.76	48.901	307.68	285.5	103.61	424.72	369.9	440.77	536.73	437.44	420.48	555.46	428.82	347.21	537.67	373.97	358.09	527.33	497.79	873.2	580.3	569.04	881.45	592.35	559.89	790.91	582.31	492.5	784.37	568.75	779.87	529.37	235.91	725.84	518.63	226.19	731.5	455.67	231.77	782.63	472.99	240.21	702.53	860.51	217.76	637.71	845.82	189.42	668.47	776.83	202.88	728.14	791.31	227.2
